# xmcd
#
# Track frame offsets:
#	150
#	15221
#	37072
#	50893
#	66796
#	84706
#	115162
#	132991
#	152995
#	166951
#	192872
#	212604
#	228993
#	248862
#	270678
#
# Disc length: 3628 seconds
# Revision: 0
# Processed by: cddbd v1.5.2PL0 Copyright (c) Steve Scherf et al.
# Submitted via: cdrLabel 7.1
#
DISCID=d00e2a0f
DTITLE=John Mayall   - Livin' in the Palace of the KiNG
DYEAR=2007
DGENRE=
TTITLE0=Track  1 - You Know That You Love Me
TTITLE1=Track  2 - Goin' Down
TTITLE2=Track  3 - Some Othet Day, Some Other Time
TTITLE3=Track  4 - Palace of the King
TTITLE4=Track  5 - I'd Rather Be Blind
TTITLE5=Track  6 - Time to Go
TTITLE6=Track  7 - Big Legged Woman
TTITLE7=Track  8 - Now I Got A Woman
TTITLE8=Track  9 - I Love You More Everyday
TTITLE9=Track 10 - Help Me Through the Day
TTITLE10=Track 11 - Cannonball Shuffle
TTITLE11=Track 12 - You've Got Me Licked
TTITLE12=Track 13 - King of the Kings
TTITLE13=Track 14 - Living on the Highway
TTITLE14=x
EXTD=
EXTT0=
EXTT1=
EXTT2=
EXTT3=
EXTT4=
EXTT5=
EXTT6=
EXTT7=
EXTT8=
EXTT9=
EXTT10=
EXTT11=
EXTT12=
EXTT13=
EXTT14=
PLAYORDER=
